<?xml version="1.0" encoding="utf-8"?>
<!-- Generator: Adobe Illustrator 27.6.1, SVG Export Plug-In . SVG Version: 6.00 Build 0)  -->
<svg version="1.1" id="Laag_1" xmlns="http://www.w3.org/2000/svg" xmlns:xlink="http://www.w3.org/1999/xlink" x="0px" y="0px"
	 viewBox="0 0 141.74 141.74" style="enable-background:new 0 0 141.74 141.74;" xml:space="preserve">
<style type="text/css">
	.st0{fill:#FFFFFF;}
	.st1{fill:#E17000;}
</style>
<g>
	<g>
		<g>
			<path d="M141.74,121.74c0,11-9,20-20,20H20c-11,0-20-9-20-20V20C0,9,9,0,20,0h101.74c11,0,20,9,20,20V121.74z"/>
		</g>
	</g>
	<g>
		<path class="st0" d="M15.76,108.25V74.76h9.6c11.33,0,17.61,5.67,17.61,15.78c0,12.1-6.84,17.72-17.82,17.72h-9.39V108.25z
			 M21.89,103.19h3.52c6.74,0,11.13-3.62,11.13-12.36c0-7.25-4.39-11.03-11.59-11.03h-3.06L21.89,103.19L21.89,103.19z"/>
		<path class="st0" d="M51.24,72.51c2.2,0,3.42,1.38,3.42,3.32c0,1.79-1.23,3.27-3.42,3.27c-2.2,0-3.37-1.33-3.37-3.27
			C47.87,74.04,49.05,72.51,51.24,72.51z M54.15,108.25h-5.77V83.13l5.77-0.26V108.25z"/>
		<path class="st0" d="M68.14,103.35h6.02c5.41,0,7.71,2.14,7.71,6.23c0,4.8-3.98,8.68-13.17,8.68c-7.2,0-10.52-2.55-10.52-6.48
			c0-2.4,1.33-4.39,3.83-5.46v-0.15c-1.17-0.61-1.99-1.89-1.99-3.37c0-1.58,0.97-3.06,2.81-3.78v-0.15
			c-2.3-1.28-3.62-3.42-3.62-6.69c0-6.13,4.14-9.45,10.52-9.45c1.38,0,2.6,0.15,3.88,0.51h8.17v3.83H77.9v0.15
			c1.07,0.82,1.99,2.55,1.99,4.75c0,5.57-3.78,8.48-10.72,8.48c-1.12,0-2.2-0.15-3.17-0.41c-0.66,0.36-1.07,0.97-1.07,1.58
			C64.93,102.74,65.79,103.35,68.14,103.35z M69.21,113.97c5.51,0,7.51-1.38,7.51-3.37c0-1.48-0.92-2.3-3.42-2.35L64.93,108
			c-0.97,0.66-1.38,1.48-1.38,2.65C63.55,112.64,65.28,113.97,69.21,113.97z M74.52,91.5c0-3.06-1.69-4.7-4.9-4.7
			c-2.86,0-4.9,1.63-4.9,5.05c0,3.27,1.84,4.65,4.8,4.65C72.69,96.51,74.52,95.03,74.52,91.5z"/>
		<path class="st1" d="M88.56,72.51c2.2,0,3.42,1.38,3.42,3.32c0,1.79-1.22,3.27-3.42,3.27s-3.37-1.33-3.37-3.27
			C85.19,74.04,86.37,72.51,88.56,72.51z M91.47,108.25H85.7V83.13l5.77-0.26V108.25z"/>
		<path class="st1" d="M98.77,108.25V74.76h9.6c11.34,0,17.62,5.67,17.62,15.78c0,12.1-6.84,17.72-17.82,17.72h-9.4V108.25z
			 M104.9,103.19h3.52c6.74,0,11.13-3.62,11.13-12.36c0-7.25-4.39-11.03-11.59-11.03h-3.06V103.19z"/>
	</g>
</g>
</svg>
